<svg width="390" height="844" viewBox="0 0 390 844" fill="none" xmlns="http://www.w3.org/2000/svg">
<g clip-path="url(#clip0_630_5733)">
<rect width="390" height="844" rx="20" fill="white"/>
<path d="M-49.0097 3.23473C-22.9965 -34.6419 6.54419 -47.6167 79.9128 -53.3972C143.28 -58.3841 213.567 -98.3416 284.363 -78.5217C316.141 -69.6253 339.305 -21.0866 314.671 27.852C290.036 76.7925 229.42 64.5793 159.112 174.208C94.7611 274.55 -12.2571 276.513 -59.3613 155.669C-79.4901 104.028 -75.2395 41.4242 -49.0097 3.23473Z" fill="#CBEF43" fill-opacity="0.57"/>
<path d="M-35.2263 807.633C-46.6492 734.771 69.0115 610 272.525 610C390.945 610 481 649.298 481 733.775C481 828.833 285.014 901.455 174.667 912.052C62.3276 922.839 -22.4805 888.936 -35.2263 807.633Z" fill="#CBEF43" fill-opacity="0.57"/>
<circle cx="314" cy="748" r="47" fill="#FF4051"/>
<path d="M335.323 736.671L309.427 726.485C308.306 726.053 307.098 726.59 306.667 727.711C306.235 728.831 306.771 730.039 307.892 730.471L328.931 738.786L292.274 755.061C291.239 755.521 290.759 756.766 291.218 757.801C291.678 758.836 292.962 759.402 293.997 758.943L330.827 742.591L322.789 764.023C322.357 765.144 322.893 766.351 324.014 766.783C324.512 766.975 325.106 766.917 325.624 766.688C326.141 766.458 326.582 766.056 326.736 765.471L336.548 739.431C336.98 738.31 336.444 737.103 335.323 736.671Z" fill="white"/>
<circle cx="62.5" cy="761.5" r="8.5" fill="#FF4051"/>
<circle cx="86.5" cy="761.5" r="8.5" fill="#FF4051"/>
<circle cx="110.5" cy="761.5" r="8.5" fill="#FF4051"/>
</g>
<defs>
<clipPath id="clip0_630_5733">
<rect width="390" height="844" rx="20" fill="white"/>
</clipPath>
</defs>
</svg>
