<svg width="390" height="844" viewBox="0 0 390 844" fill="none" xmlns="http://www.w3.org/2000/svg">
<g clip-path="url(#clip0_630_5733)">
<rect width="390" height="844" rx="20" fill="white"/>
<path d="M-49.0097 3.23473C-22.9966 -34.6419 6.54419 -47.6167 79.9128 -53.3972C143.28 -58.3841 213.567 -98.3416 284.363 -78.5217C316.141 -69.6253 339.305 -21.0866 314.671 27.852C290.036 76.7925 229.42 64.5793 159.112 174.208C94.761 274.55 -12.2571 276.513 -59.3613 155.669C-79.4901 104.028 -75.2395 41.4242 -49.0097 3.23473Z" fill="#CBEF43" fill-opacity="0.57"/>
<path d="M-35.2263 807.633C-46.6492 734.771 69.0115 610 272.525 610C390.945 610 481 649.298 481 733.775C481 828.833 285.014 901.455 174.667 912.052C62.3276 922.839 -22.4805 888.936 -35.2263 807.633Z" fill="#CBEF43" fill-opacity="0.57"/>
</g>
<defs>
<clipPath id="clip0_630_5733">
<rect width="390" height="844" rx="20" fill="white"/>
</clipPath>
</defs>
</svg>
